<?xml version="1.0" encoding="UTF-8"?>
<svg width="29px" height="25px" viewBox="0 0 29 25" version="1.1" xmlns="http://www.w3.org/2000/svg" xmlns:xlink="http://www.w3.org/1999/xlink">
    <title>Group 2 Copy</title>
    <g id="Application" stroke="none" stroke-width="1" fill="none" fill-rule="evenodd">
        <g id="Galaxy-S10----마이프로필" transform="translate(-277.000000, -333.000000)" stroke="#979797">
            <g id="Group-2-Copy" transform="translate(277.000000, 333.000000)">
                <path d="M14.5,0.5 C16.709139,0.5 18.709139,1.3954305 20.1568542,2.84314575 C21.6045695,4.290861 22.5,6.290861 22.5,8.5 C22.5,11.2765254 21.085484,13.7225843 18.9379894,15.157225 C18.5779328,15.397762 18.1994987,15.608379 17.807409,15.7873579 C18.2341071,15.860303 18.6636527,15.9504985 19.0946274,16.0580943 C21.7713098,16.7263464 24.0838673,17.961121 25.7492157,19.5710175 C27.199749,20.9732516 28.157541,22.6605809 28.4144535,24.5002612 L28.4144535,24.5002612 L0.553279418,24.5002612 C0.810618223,22.6575221 1.77116496,20.9676394 3.22575143,19.563897 C4.89547417,17.9525382 7.2139052,16.7175448 9.89675731,16.051027 C10.3285616,15.9437511 10.7589149,15.8539073 11.1861343,15.7812816 C10.7931537,15.6020911 10.4144342,15.3911415 10.0541936,15.1501798 C7.91106281,13.7166584 6.5,11.2731379 6.5,8.5 C6.5,6.290861 7.3954305,4.290861 8.84314575,2.84314575 C10.290861,1.3954305 12.290861,0.5 14.5,0.5 Z" id="Combined-Shape"></path>
            </g>
        </g>
    </g>
</svg>