<?xml version="1.0" encoding="UTF-8"?>
<svg width="30px" height="30px" viewBox="0 0 30 30" version="1.1" xmlns="http://www.w3.org/2000/svg" xmlns:xlink="http://www.w3.org/1999/xlink">
    <title>Group 2</title>
    <g id="Application" stroke="none" stroke-width="1" fill="none" fill-rule="evenodd">
        <g id="Galaxy-S10----맛집-검색" transform="translate(-121.000000, -368.000000)">
            <g id="Group-2" transform="translate(121.000000, 368.000000)">
                <circle id="Oval" fill="#FFFFFF" cx="15" cy="15" r="15"></circle>
                <path d="M14.8009259,18.75 C20.2899094,18.75 24.86075,21.5017258 25.8517411,25.1419827 C23.109743,28.1287555 19.1738607,30 14.8009259,30 C10.427991,30 6.49210874,28.1287555 3.7503315,25.1433189 C4.7411017,21.5017258 9.31194236,18.75 14.8009259,18.75 Z M15.1759259,6 C18.6967412,6 21.5509259,8.85418472 21.5509259,12.375 C21.5509259,15.8958153 18.6967412,18.75 15.1759259,18.75 C11.6551106,18.75 8.80092587,15.8958153 8.80092587,12.375 C8.80092587,8.85418472 11.6551106,6 15.1759259,6 Z" id="Combined-Shape" fill="#D8D8D8"></path>
            </g>
        </g>
    </g>
</svg>