<?xml version="1.0" encoding="UTF-8"?>
<svg width="24px" height="25px" viewBox="0 0 24 25" version="1.1" xmlns="http://www.w3.org/2000/svg" xmlns:xlink="http://www.w3.org/1999/xlink">
    <title>검색창</title>
    <g id="Application" stroke="none" stroke-width="1" fill="none" fill-rule="evenodd">
        <g id="Galaxy-S10----Home" transform="translate(-277.000000, -20.000000)" fill="#FFFFFF">
            <g id="search" transform="translate(277.000000, 20.000000)">
                <path d="M13.6819805,0 C19.204828,0 23.6819805,4.4771525 23.6819805,10 C23.6819805,15.5228475 19.204828,20 13.6819805,20 C8.15913302,20 3.68198052,15.5228475 3.68198052,10 C3.68198052,4.4771525 8.15913302,0 13.6819805,0 Z M13.6819805,2 C9.26370252,2 5.68198052,5.581722 5.68198052,10 C5.68198052,14.418278 9.26370252,18 13.6819805,18 C18.1002585,18 21.6819805,14.418278 21.6819805,10 C21.6819805,5.581722 18.1002585,2 13.6819805,2 Z" id="Combined-Shape"></path>
                <rect id="Rectangle" transform="translate(5.000000, 19.681981) rotate(-45.000000) translate(-5.000000, -19.681981) " x="0" y="18.1819805" width="10" height="3" rx="1.5"></rect>
            </g>
        </g>
    </g>
</svg>