<?xml version="1.0" encoding="UTF-8"?>
<svg width="27px" height="27px" viewBox="0 0 27 27" version="1.1" xmlns="http://www.w3.org/2000/svg" xmlns:xlink="http://www.w3.org/1999/xlink">
    <title>review</title>
    <g id="Symbols" stroke="none" stroke-width="1" fill="none" fill-rule="evenodd">
        <g id="하단-탭" transform="translate(-167.000000, -13.000000)" stroke="#898989">
            <g id="펜-아이콘" transform="translate(168.000000, 14.000000)">
                <path d="M13.9427845,-1.25660641 L14.0143106,-1.25641987 C14.6087999,-1.25486947 15.1502953,-1.10864613 15.6082345,-0.848316338 C16.0661738,-0.587986547 16.4405569,-0.213550309 16.7008216,0.244425874 C16.9610864,0.702402058 17.1072329,1.24391819 17.1086989,1.83840776 L17.1553848,20.7701847 C17.1594706,22.4270339 15.8196412,23.7734878 14.1627919,23.7775736 C14.157718,23.7775861 14.1526441,23.7775857 14.1475701,23.7775725 L14.0760441,23.777386 C13.4815547,23.7758356 12.9400593,23.6296122 12.4821201,23.3692824 C12.0241809,23.1089527 11.6497978,22.7345164 11.389533,22.2765402 C11.1292682,21.818564 10.9831217,21.2770479 10.9816557,20.6825583 L10.9349698,1.75078139 C10.930884,0.0939321766 12.2707135,-1.25252169 13.9275627,-1.25660749 C13.9326366,-1.25662 13.9377106,-1.25661964 13.9427845,-1.25660641 Z" id="Rectangle" transform="translate(14.045177, 11.260483) rotate(45.000000) translate(-14.045177, -11.260483) "></path>
                <line x1="17.6428571" y1="3.75615764" x2="21.2333333" y2="7.32758621" id="Line-4" stroke-linecap="square"></line>
                <line x1="16.7761905" y1="4.6182266" x2="20.3666667" y2="8.18965517" id="Line-4" stroke-linecap="square"></line>
                <line x1="2.6" y1="21.5517241" x2="3.9" y2="22.8448276" id="Line-4" stroke-linecap="square"></line>
                <line x1="3.9" y1="17.6724138" x2="0.433333333" y2="24.5689655" id="Line-4" stroke-linecap="round"></line>
                <line x1="8.23333333" y1="21.1206897" x2="0.433333333" y2="24.5689655" id="Line-4" stroke-linecap="round"></line>
            </g>
        </g>
    </g>
</svg>